<svg width="35" height="35" viewBox="0 0 35 35" fill="none" xmlns="http://www.w3.org/2000/svg">
<path fill-rule="evenodd" clip-rule="evenodd" d="M7.9771 7.9771C8.18218 7.77227 8.46017 7.65723 8.75001 7.65723C9.03986 7.65723 9.31785 7.77227 9.52293 7.9771L27.0229 25.4771C27.1304 25.5772 27.2166 25.698 27.2764 25.8321C27.3361 25.9663 27.3683 26.1111 27.3709 26.258C27.3735 26.4049 27.3465 26.5507 27.2914 26.6869C27.2364 26.8231 27.1546 26.9468 27.0507 27.0507C26.9468 27.1546 26.8231 27.2364 26.6869 27.2914C26.5507 27.3465 26.4049 27.3735 26.258 27.3709C26.1111 27.3683 25.9663 27.3361 25.8321 27.2764C25.698 27.2166 25.5772 27.1304 25.4771 27.0229L7.9771 9.52293C7.77227 9.31785 7.65723 9.03986 7.65723 8.75001C7.65723 8.46017 7.77227 8.18218 7.9771 7.9771Z" fill="#38624C"/>
<path fill-rule="evenodd" clip-rule="evenodd" d="M27.023 7.9771C27.2278 8.18218 27.3428 8.46017 27.3428 8.75001C27.3428 9.03986 27.2278 9.31785 27.023 9.52293L9.52298 27.0229C9.31564 27.2161 9.0414 27.3213 8.75805 27.3163C8.47469 27.3113 8.20434 27.1965 8.00395 26.9961C7.80355 26.7957 7.68876 26.5254 7.68376 26.242C7.67876 25.9587 7.78394 25.6844 7.97714 25.4771L25.4771 7.9771C25.6822 7.77227 25.9602 7.65723 26.2501 7.65723C26.5399 7.65723 26.8179 7.77227 27.023 7.9771Z" fill="#38624C"/>
</svg>
