<svg width="16" height="16" viewBox="0 0 16 16" fill="none" xmlns="http://www.w3.org/2000/svg">
<path d="M12.3333 5.5556L11.7733 11.4653C11.6886 12.3611 11.6466 12.8087 11.4533 13.1472C11.2837 13.4451 11.0343 13.6834 10.7366 13.8319C10.3986 14 9.97325 14 9.11992 14H7.54659C6.69392 14 6.26792 14 5.92992 13.8312C5.63195 13.6828 5.38233 13.4445 5.21259 13.1464C5.02059 12.8087 4.97792 12.3611 4.89259 11.4653L4.33325 5.5556M9.33325 10.1297V6.61115M7.33325 10.1297V6.61115M3.33325 3.79634H6.40992M6.40992 3.79634L6.66725 1.91604C6.74192 1.57404 7.01125 1.33337 7.32059 1.33337H9.34592C9.65525 1.33337 9.92392 1.57404 9.99925 1.91604L10.2566 3.79634M6.40992 3.79634H10.2566M10.2566 3.79634H13.3333" stroke="black" stroke-linecap="round" stroke-linejoin="round"/>
</svg>
