<svg width="76" height="76" viewBox="0 0 76 76" fill="none" xmlns="http://www.w3.org/2000/svg">
<path d="M34.8334 17.9587C33.1284 15.5437 31.3212 13.2578 29.746 11.3624C27.4224 8.56668 23.245 8.56603 20.9214 11.3618C16.2365 16.9986 9.50006 26.0897 9.50006 31.7599C9.50006 39.3749 14.9396 45.7268 22.1667 47.1852M57.0001 44.3334C57.0001 51.329 51.329 57.0001 44.3334 57.0001M66.5001 43.4952C66.5001 34.4823 55.3451 19.5557 48.8616 11.6413C46.4896 8.7457 42.1772 8.7457 39.8052 11.6413C33.3217 19.5557 22.1667 34.4823 22.1667 43.4952C22.1667 56.2005 32.0911 66.5001 44.3334 66.5001C56.5757 66.5001 66.5001 56.2005 66.5001 43.4952Z" stroke="white" stroke-width="2.5" stroke-linecap="round" stroke-linejoin="round"/>
</svg>
