<svg width="40" height="40" viewBox="0 0 40 40" fill="none" xmlns="http://www.w3.org/2000/svg">
<path d="M26.7776 14.9916C26.8971 14.8764 26.9924 14.7385 27.058 14.586C27.1235 14.4335 27.1581 14.2695 27.1596 14.1036C27.1611 13.9376 27.1296 13.773 27.0668 13.6193C27.004 13.4657 26.9113 13.3261 26.794 13.2086C26.6767 13.0912 26.5371 12.9983 26.3835 12.9354C26.23 12.8725 26.0654 12.8408 25.8994 12.8421C25.7334 12.8435 25.5694 12.8779 25.4168 12.9434C25.2643 13.0088 25.1263 13.104 25.011 13.2233L20.001 18.2316L14.9926 13.2233C14.8782 13.1005 14.7402 13.002 14.5869 12.9337C14.4335 12.8653 14.268 12.8286 14.1002 12.8256C13.9323 12.8227 13.7656 12.8535 13.61 12.9164C13.4543 12.9793 13.3129 13.0729 13.1942 13.1916C13.0755 13.3103 12.982 13.4516 12.9191 13.6073C12.8562 13.7629 12.8254 13.9297 12.8283 14.0975C12.8313 14.2653 12.868 14.4309 12.9363 14.5842C13.0047 14.7375 13.1032 14.8755 13.226 14.99L18.231 20L13.2226 25.0083C13.0018 25.2452 12.8816 25.5587 12.8873 25.8825C12.8931 26.2063 13.0242 26.5153 13.2533 26.7443C13.4823 26.9733 13.7913 27.1045 14.1151 27.1102C14.4389 27.116 14.7523 26.9958 14.9893 26.775L20.001 21.7666L25.0093 26.7766C25.2463 26.9974 25.5597 27.1176 25.8835 27.1119C26.2073 27.1062 26.5163 26.975 26.7453 26.746C26.9744 26.517 27.1055 26.208 27.1113 25.8842C27.117 25.5603 26.9968 25.2469 26.776 25.01L21.771 20L26.7776 14.9916Z" fill="#fff"/>
</svg>
