<svg width="78" height="77" viewBox="0 0 78 77" fill="none" xmlns="http://www.w3.org/2000/svg">
<path d="M26.2727 35V21.4773C26.2727 14.8875 31.6148 9.54547 38.2045 9.54547C44.7943 9.54547 50.1364 14.8875 50.1364 21.4773V35M21.5 66.8182H54.9091C58.4236 66.8182 61.2727 63.9691 61.2727 60.4546V41.3637C61.2727 37.8491 58.4236 35 54.9091 35H21.5C17.9854 35 15.1364 37.8491 15.1364 41.3637V60.4546C15.1364 63.9691 17.9855 66.8182 21.5 66.8182ZM45.3636 50.9091C45.3636 54.4236 42.5145 57.2727 39 57.2727C35.4854 57.2727 32.6364 54.4236 32.6364 50.9091C32.6364 47.3946 35.4854 44.5455 39 44.5455C42.5145 44.5455 45.3636 47.3946 45.3636 50.9091Z" stroke="white" stroke-width="2.5" stroke-linecap="round" stroke-linejoin="round"/>
</svg>
