<svg width="30" height="28" viewBox="0 0 30 28" fill="none" xmlns="http://www.w3.org/2000/svg">
<path d="M29.4784 10.921L29.4784 10.921L23.0283 16.444L23.0282 16.444C22.2354 17.1231 21.8868 18.191 22.1225 19.21C22.1225 19.21 22.1225 19.21 22.1225 19.21L24.022 27.4248C24.0266 27.4446 24.0238 27.4551 24.0214 27.4613C24.0181 27.4697 24.0112 27.4797 24.0001 27.4881C23.989 27.4964 23.9787 27.4993 23.9722 27.4999C23.9684 27.5002 23.9603 27.5006 23.9447 27.4916L23.9447 27.4916L16.382 23.1145C15.5262 22.6191 14.4738 22.6191 13.6181 23.1145C13.6181 23.1145 13.618 23.1145 13.618 23.1145L6.05522 27.4916L6.05519 27.4916C6.03964 27.5006 6.03158 27.5002 6.02775 27.4999C6.02128 27.4993 6.01095 27.4964 5.99986 27.4881C5.98878 27.4797 5.98188 27.4697 5.9786 27.4613C5.97621 27.4551 5.9734 27.4447 5.97797 27.4249L5.97798 27.4249L7.8775 19.21C8.11313 18.191 7.7647 17.1231 6.97178 16.444L6.97174 16.444L0.521547 10.921C0.506933 10.9085 0.503349 10.8991 0.501697 10.8927C0.499365 10.8837 0.498938 10.8703 0.503677 10.8552C0.508418 10.8401 0.516141 10.8303 0.522042 10.8252C0.525785 10.822 0.532503 10.8171 0.55022 10.8155L9.19497 10.034C10.1992 9.94319 11.0733 9.31115 11.482 8.38617L11.482 8.38616L14.9515 0.533447C14.9515 0.533444 14.9515 0.533442 14.9515 0.53344C14.9594 0.515553 14.9672 0.509923 14.9713 0.507348C14.9775 0.503497 14.9874 0.5 15 0.5C15.0126 0.5 15.0225 0.503497 15.0287 0.507349C15.0328 0.509924 15.0406 0.515554 15.0485 0.533438C15.0485 0.533441 15.0485 0.533444 15.0485 0.533447L18.518 8.38615C18.9266 9.31114 19.8008 9.94319 20.805 10.034L29.4498 10.8155C29.4675 10.8171 29.4742 10.822 29.478 10.8252C29.4839 10.8302 29.4916 10.8401 29.4963 10.8552C29.5011 10.8703 29.5006 10.8837 29.4983 10.8927C29.4966 10.8991 29.4931 10.9085 29.4784 10.921Z" fill="white" stroke="white"/>
</svg>
