<svg width="19" height="18" viewBox="0 0 19 18" fill="none" xmlns="http://www.w3.org/2000/svg">
<path d="M8.90941 0.790532C9.19907 0.141125 10.1209 0.141124 10.4105 0.790531L12.4264 5.31029C12.5478 5.58239 12.8069 5.7675 13.1037 5.79407L18.1266 6.24387C18.853 6.30892 19.1411 7.21743 18.5849 7.68915L14.8371 10.868C14.6021 11.0674 14.4983 11.3815 14.5684 11.6816L15.6721 16.4098C15.8353 17.1091 15.0861 17.6667 14.463 17.3095L10.0687 14.7902C9.81554 14.6451 9.50438 14.6451 9.25121 14.7902L4.85688 17.3095C4.23384 17.6667 3.48458 17.1091 3.64783 16.4098L4.75153 11.6816C4.82159 11.3815 4.71785 11.0674 4.48282 10.868L0.734998 7.68915C0.178859 7.21743 0.466945 6.30892 1.19329 6.24387L6.21624 5.79407C6.513 5.7675 6.77213 5.58239 6.89349 5.31029L8.90941 0.790532Z" fill="white"/>
</svg>
