<svg width="78" height="77" viewBox="0 0 78 77" fill="none" xmlns="http://www.w3.org/2000/svg">
<path d="M13.3091 41.1407L11.9693 41.9659C10.4665 42.8916 8.64701 41.3808 9.2806 39.7335L11.1524 34.8669C11.4522 34.0876 11.191 33.2041 10.5157 32.7131L6.70129 29.9396C5.25653 28.8891 5.99962 26.6036 7.78593 26.6036H11.9569C12.7618 26.6036 13.4737 26.0816 13.7158 25.314L15.109 20.8966C15.6514 19.1772 18.0846 19.1772 18.6269 20.8966L20.0202 25.314C20.2623 26.0816 20.9742 26.6036 21.7791 26.6036H25.2121C27.0635 26.6036 27.7605 29.0264 26.1922 30.0103L26.0897 30.0746M51.9105 30.0746L51.808 30.0103C50.2397 29.0264 50.9367 26.6036 52.7881 26.6036H56.2211C57.026 26.6036 57.7379 26.0816 57.98 25.314L59.3733 20.8966C59.9156 19.1772 62.3488 19.1772 62.8911 20.8966L64.2844 25.314C64.5265 26.0816 65.2384 26.6036 66.0433 26.6036H70.2143C72.0006 26.6036 72.7437 28.8891 71.2989 29.9396L67.4845 32.7131C66.8092 33.2041 66.548 34.0876 66.8478 34.8669L68.7196 39.7335C69.3532 41.3808 67.5336 42.8916 66.0309 41.9659L64.6911 41.1407M47.8275 52.6784L49.9613 58.2259C50.9507 60.7984 47.9809 63.0776 45.7519 61.4565L41.1697 58.1238C39.8763 57.1831 38.1239 57.1831 36.8305 58.1238L32.2482 61.4565C30.0193 63.0776 27.0495 60.7984 28.0389 58.2259L30.1727 52.6784C30.7721 51.1198 30.2498 49.3529 28.8991 48.3708L23.7501 44.6269C21.5829 43.0511 22.6976 39.6228 25.377 39.6228H30.9573C32.5671 39.6228 33.991 38.5789 34.4752 37.0437L36.3617 31.0624C37.1752 28.4832 40.825 28.4832 41.6385 31.0624L43.525 37.0437C44.0092 38.5789 45.4331 39.6228 47.0429 39.6228H52.6232C55.3026 39.6228 56.4173 43.0511 54.2501 44.6269L49.1011 48.3708C47.7504 49.3529 47.2281 51.1198 47.8275 52.6784Z" stroke="white" stroke-width="2.5" stroke-linecap="round" stroke-linejoin="round"/>
</svg>
