<svg width="18" height="18" viewBox="0 0 18 18" fill="none" xmlns="http://www.w3.org/2000/svg">
<g clip-path="url(#clip0_441_512)">
<path d="M11.657 6.53874L11.3215 13.9232M6.67855 13.9232L6.34303 6.53874M16.009 3.90497C16.3406 3.94763 16.6703 3.99276 17 4.04117M16.009 3.90497L14.9733 15.2958C14.9311 15.7596 14.6835 16.1928 14.28 16.5087C13.8766 16.8247 13.3471 17.0001 12.7973 17H5.20267C4.65294 17.0001 4.12342 16.8247 3.71998 16.5087C3.31654 16.1928 3.06893 15.7596 3.02667 15.2958L1.99103 3.90497M16.009 3.90497C14.8898 3.7618 13.7649 3.65315 12.6364 3.57923M1.99103 3.90497C1.65939 3.94681 1.3297 3.99194 1 4.04035M1.99103 3.90497C3.11019 3.76181 4.23514 3.65315 5.36364 3.57923M12.6364 3.57923V2.82766C12.6364 1.85948 11.7539 1.05212 10.6097 1.02176C9.53684 0.992747 8.46316 0.992747 7.3903 1.02176C6.24606 1.05212 5.36364 1.8603 5.36364 2.82766V3.57923M12.6364 3.57923C10.2157 3.42094 7.78427 3.42094 5.36364 3.57923" stroke="black" stroke-width="1.5" stroke-linecap="round" stroke-linejoin="round"/>
</g>
<defs>
<clipPath id="clip0_441_512">
<rect width="18" height="18" fill="white"/>
</clipPath>
</defs>
</svg>
