<svg width="16" height="16" viewBox="0 0 16 16" fill="none" xmlns="http://www.w3.org/2000/svg">
<path d="M12.7528 6.5839L13.309 6.02769C13.7514 5.58522 14 4.98511 14 4.35937C14 3.73362 13.7514 3.13351 13.309 2.69104C12.8665 2.24858 12.2665 2 11.6408 2C11.015 2 10.415 2.24858 9.97251 2.69104L9.41633 3.24725L4.30331 8.35932C3.95713 8.70613 3.78373 8.87953 3.63494 9.07033C3.45921 9.2955 3.30853 9.53914 3.18555 9.79694C3.08176 10.0153 3.00436 10.2481 2.84957 10.7126L2.19319 12.6812M12.7528 6.5839C12.7528 6.5839 11.5715 6.5143 10.5287 5.47148C9.48593 4.42927 9.41693 3.24725 9.41693 3.24725M12.7528 6.5839L7.6404 11.696C7.29421 12.0422 7.12081 12.2156 6.93002 12.3644C6.70487 12.5401 6.46124 12.6908 6.20345 12.8138C5.98505 12.9176 5.75286 12.995 5.28788 13.1498L3.31935 13.8062M3.31935 13.8062L2.83817 13.967C2.726 14.0046 2.60557 14.0102 2.49041 13.9831C2.37525 13.956 2.26993 13.8974 2.18627 13.8137C2.10262 13.7301 2.04396 13.6247 2.01688 13.5096C1.98981 13.3944 1.99539 13.274 2.033 13.1618L2.19379 12.6806L3.31935 13.8062Z" stroke="black"/>
</svg>
