<svg width="92" height="92" viewBox="0 0 92 92" fill="none" xmlns="http://www.w3.org/2000/svg">
<circle cx="46" cy="46" r="46" fill="#EBF3F7"/>
<path d="M32.4883 45.364C32.4883 42.916 33.1003 40.648 34.3123 38.572C35.5243 36.496 37.1683 34.852 39.2443 33.64C41.3203 32.428 43.5763 31.828 46.0123 31.828C47.8363 31.828 49.5883 32.188 51.2563 32.896C52.9243 33.604 54.3523 34.576 55.5643 35.776C56.7763 36.976 57.7363 38.416 58.4443 40.096C59.1523 41.776 59.5123 43.516 59.5123 45.364C59.5123 47.188 59.1523 48.94 58.4443 50.608C57.7363 52.276 56.7643 53.716 55.5643 54.916C54.3643 56.116 52.9243 57.076 51.2563 57.784C49.5883 58.492 47.8483 58.852 46.0123 58.852C44.1763 58.852 42.4123 58.492 40.7443 57.784C39.0763 57.076 37.6363 56.104 36.4243 54.904C35.2123 53.704 34.2643 52.264 33.5443 50.608C32.8243 48.952 32.4883 47.2 32.4883 45.364ZM35.4643 45.364C35.4643 48.208 36.4963 50.68 38.5723 52.78C40.6483 54.856 43.1203 55.888 46.0123 55.888C47.9083 55.888 49.6723 55.42 51.2803 54.472C52.8883 53.524 54.1843 52.252 55.1323 50.632C56.0803 49.012 56.5603 47.26 56.5603 45.364C56.5603 43.468 56.0803 41.704 55.1323 40.084C54.1843 38.464 52.9003 37.18 51.2803 36.232C49.6603 35.284 47.9083 34.816 46.0123 34.816C44.1163 34.816 42.3523 35.284 40.7443 36.232C39.1363 37.18 37.8403 38.464 36.8803 40.084C35.9203 41.704 35.4643 43.468 35.4643 45.364ZM44.9683 45.364V37.372C44.9683 37.096 45.0643 36.856 45.2563 36.664C45.4483 36.472 45.6883 36.376 45.9643 36.376C46.2403 36.376 46.4803 36.472 46.6723 36.664C46.8643 36.856 46.9603 37.096 46.9603 37.372V43.624L50.2963 41.74C50.5363 41.596 50.7883 41.56 51.0523 41.632C51.3163 41.704 51.5203 41.872 51.6523 42.124C51.7963 42.364 51.8203 42.616 51.7483 42.88C51.6763 43.144 51.5203 43.36 51.2803 43.492L46.6243 46.096C46.4425 46.267 46.2019 46.3615 45.9523 46.36C45.8214 46.3622 45.6915 46.3378 45.5704 46.2883C45.4492 46.2389 45.3393 46.1654 45.2474 46.0723C45.1554 45.9792 45.0833 45.8685 45.0353 45.7467C44.9873 45.625 44.9645 45.4948 44.9683 45.364Z" fill="#232323"/>
</svg>
