<svg width="19" height="18" viewBox="0 0 19 18" fill="none" xmlns="http://www.w3.org/2000/svg">
<path d="M9.79469 0.994325L11.8106 5.51408C12.0058 5.95173 12.4226 6.24946 12.8999 6.2922L17.9229 6.742C18.2073 6.76747 18.3201 7.12324 18.1023 7.30796L14.3545 10.4868C13.9765 10.8075 13.8096 11.3127 13.9223 11.7954L15.026 16.5236C15.0899 16.7974 14.7965 17.0158 14.5525 16.8759L10.1582 14.3566C9.75101 14.1231 9.25055 14.1231 8.84335 14.3566L4.44902 16.8759C4.20504 17.0158 3.91163 16.7974 3.97556 16.5236L5.07926 11.7954C5.19194 11.3127 5.02508 10.8075 4.64707 10.4868L0.899242 7.30796C0.681461 7.12324 0.794276 6.76747 1.0787 6.742L6.10166 6.2922C6.57896 6.24946 6.99574 5.95174 7.19095 5.51409L9.20687 0.994326C9.3203 0.740022 9.68126 0.740024 9.79469 0.994325Z" stroke="white"/>
</svg>
