<svg width="110" height="68" viewBox="0 0 110 68" fill="none" xmlns="http://www.w3.org/2000/svg">
<path d="M109.419 53.7202C103.446 47.7731 95.7181 43.9103 87.3805 42.7042C86.866 42.6285 86.3425 42.7605 85.9252 43.0711C85.5079 43.3818 85.2309 43.8456 85.1553 44.3607C85.0796 44.8758 85.2114 45.3999 85.5217 45.8176C85.832 46.2354 86.2954 46.5127 86.8099 46.5884C93.6295 47.5772 100.011 50.5413 105.169 55.1156C98.9188 60.5963 90.9719 63.752 82.6682 64.0505C74.3645 64.349 66.212 61.7722 59.585 56.7544C79.084 54.2438 94.309 37.5444 94.4177 17.4667C94.4193 16.9441 94.2136 16.4422 93.8457 16.0714C93.6622 15.8787 93.4395 15.7276 93.1928 15.6281C92.9461 15.5287 92.681 15.4832 92.4152 15.4947C84.1708 15.5276 76.146 18.1585 69.4792 23.0142C69.0587 23.3199 68.7768 23.7802 68.6954 24.294C68.614 24.8078 68.7398 25.333 69.0451 25.7539C69.3505 26.1748 69.8104 26.4571 70.3236 26.5386C70.8369 26.62 71.3614 26.4941 71.7819 26.1884C77.2331 22.2208 83.7032 19.8951 90.4304 19.485C89.8775 28.3685 86.041 36.6713 79.5622 42.9572C74.0379 48.3428 66.9286 51.8052 59.2862 52.8322C71.3119 37.2765 70.3527 14.7658 56.3259 0.570087C55.9541 0.204702 55.4538 0 54.9328 0C54.4117 0 53.9115 0.204702 53.5396 0.570087C47.5998 6.54892 43.7413 14.2838 42.5355 22.6293C42.471 23.1387 42.6087 23.6532 42.919 24.0622C43.2293 24.4711 43.6874 24.7419 44.195 24.8163C44.7025 24.8908 45.219 24.7629 45.6335 24.4603C46.0479 24.1577 46.3272 23.7043 46.4114 23.1978C47.4003 16.3712 50.361 9.98282 54.9294 4.81873C60.771 11.4501 63.8821 19.9936 63.7163 28.9873C63.5894 36.6823 61.0015 44.1339 56.3327 50.2482C53.8466 30.8899 37.3677 15.7042 17.5644 15.5042C17.3048 15.5003 17.0471 15.548 16.8061 15.6447C16.5651 15.7415 16.3458 15.8852 16.1608 16.0676C15.9758 16.2499 15.829 16.4673 15.7287 16.7071C15.6285 16.9468 15.5769 17.2041 15.5769 17.464V21.1047C15.5769 21.1686 15.5769 21.2339 15.5864 21.3033C16.2714 27.9917 18.6511 34.3941 22.4999 39.904C22.7219 40.2217 23.0331 40.4664 23.394 40.6071C23.7549 40.7477 24.1494 40.778 24.5276 40.6941C24.9057 40.6103 25.2505 40.416 25.5183 40.1359C25.7861 39.8558 25.965 39.5025 26.0321 39.1206C26.0778 38.8672 26.0727 38.6073 26.0172 38.3558C25.9617 38.1044 25.8569 37.8665 25.7088 37.6559C22.2617 32.7212 20.1227 26.9911 19.4922 21.0027V19.5067C28.2642 20.0915 36.4738 23.939 42.6741 30.4058C47.9822 35.9091 51.3942 42.9668 52.412 50.5487C36.9873 38.6487 14.6314 39.821 0.586893 53.5924C0.401789 53.7732 0.254547 53.9891 0.153777 54.2275C0.0530072 54.4659 0.000732268 54.7221 9.01453e-06 54.981C-0.000774935 55.2404 0.0495806 55.4974 0.148191 55.7373C0.246801 55.9772 0.391727 56.1953 0.574666 56.379L3.13685 58.944C3.18608 58.992 3.23777 59.0374 3.29172 59.08C10.3371 64.8122 19.1378 67.9436 28.2166 67.9486H28.2927C35.367 67.9475 42.3111 66.0438 48.3989 62.4365C48.8459 62.171 49.1692 61.7387 49.2977 61.2346C49.4263 60.7305 49.3495 60.1959 49.0843 59.7484C48.8191 59.301 48.3872 58.9773 47.8837 58.8487C47.3801 58.72 46.8461 58.7969 46.3992 59.0623C40.9204 62.3098 34.6707 64.0242 28.3036 64.0263H28.203C20.0645 64.021 12.1731 61.2262 5.84168 56.107L4.77931 55.0449C11.4116 49.2322 19.9038 46.1314 28.8456 46.2729C38.1067 46.4225 46.7959 50.0564 53.3127 56.5069H53.3195L53.3304 56.5178C60.8104 63.9202 70.763 68.0002 81.3609 68.0002C91.9696 68.0002 101.932 63.9202 109.414 56.5096C109.599 56.3274 109.745 56.1104 109.844 55.8712C109.944 55.632 109.995 55.3754 109.995 55.1163C109.995 54.8571 109.944 54.6005 109.844 54.3614C109.745 54.1222 109.599 53.9052 109.414 53.723L109.419 53.7202Z" fill="white"/>
</svg>
