<svg width="110" height="68" viewBox="0 0 110 68" fill="none" xmlns="http://www.w3.org/2000/svg">
<g clip-path="url(#clip0_327_735)">
<path d="M109.419 53.7198C103.446 47.7726 95.7181 43.9098 87.3805 42.7038C86.866 42.628 86.3425 42.76 85.9252 43.0706C85.5079 43.3813 85.2309 43.8452 85.1553 44.3602C85.0796 44.8753 85.2114 45.3994 85.5217 45.8171C85.832 46.2349 86.2954 46.5122 86.8099 46.5879C93.6295 47.5767 100.011 50.5408 105.169 55.1151C98.9188 60.5959 90.9719 63.7515 82.6682 64.05C74.3645 64.3485 66.212 61.7717 59.585 56.7539C79.084 54.2434 94.309 37.5439 94.4177 17.4662C94.4193 16.9436 94.2136 16.4418 93.8457 16.0709C93.6622 15.8782 93.4395 15.7271 93.1928 15.6276C92.9461 15.5282 92.681 15.4827 92.4152 15.4942C84.1708 15.5272 76.146 18.158 69.4792 23.0137C69.0587 23.3194 68.7768 23.7797 68.6954 24.2935C68.614 24.8073 68.7398 25.3325 69.0451 25.7534C69.3505 26.1743 69.8104 26.4566 70.3236 26.5381C70.8369 26.6196 71.3614 26.4936 71.7819 26.1879C77.2331 22.2203 83.7032 19.8946 90.4304 19.4845C89.8775 28.368 86.041 36.6708 79.5622 42.9567C74.0379 48.3423 66.9286 51.8047 59.2862 52.8317C71.3119 37.276 70.3527 14.7653 56.3259 0.569599C55.9541 0.204214 55.4538 -0.000488281 54.9328 -0.000488281C54.4117 -0.000488281 53.9115 0.204214 53.5396 0.569599C47.5998 6.54843 43.7413 14.2833 42.5355 22.6288C42.471 23.1383 42.6087 23.6527 42.919 24.0617C43.2293 24.4706 43.6874 24.7414 44.195 24.8158C44.7025 24.8903 45.219 24.7625 45.6335 24.4598C46.0479 24.1572 46.3272 23.7039 46.4114 23.1973C47.4003 16.3707 50.361 9.98233 54.9294 4.81824C60.771 11.4496 63.8821 19.9931 63.7163 28.9868C63.5894 36.6818 61.0015 44.1334 56.3327 50.2477C53.8466 30.8894 37.3677 15.7037 17.5644 15.5038C17.3048 15.4998 17.0471 15.5476 16.8061 15.6443C16.5651 15.741 16.3458 15.8847 16.1608 16.0671C15.9758 16.2494 15.829 16.4668 15.7287 16.7066C15.6285 16.9463 15.5769 17.2036 15.5769 17.4635V21.1042C15.5769 21.1682 15.5769 21.2334 15.5864 21.3028C16.2714 27.9912 18.6511 34.3937 22.4999 39.9035C22.7219 40.2212 23.0331 40.4659 23.394 40.6066C23.7549 40.7472 24.1494 40.7775 24.5276 40.6937C24.9057 40.6098 25.2505 40.4155 25.5183 40.1354C25.7861 39.8553 25.965 39.502 26.0321 39.1202C26.0778 38.8667 26.0727 38.6068 26.0172 38.3553C25.9617 38.1039 25.8569 37.866 25.7088 37.6554C22.2617 32.7207 20.1227 26.9906 19.4922 21.0022V19.5062C28.2642 20.091 36.4738 23.9385 42.6741 30.4053C47.9822 35.9086 51.3942 42.9663 52.412 50.5482C36.9873 38.6482 14.6314 39.8206 0.586893 53.5919C0.401789 53.7727 0.254547 53.9886 0.153777 54.227C0.0530072 54.4655 0.000732268 54.7216 9.01453e-06 54.9805C-0.000774935 55.2399 0.0495806 55.4969 0.148191 55.7368C0.246801 55.9767 0.391727 56.1948 0.574666 56.3786L3.13685 58.9435C3.18608 58.9915 3.23777 59.0369 3.29172 59.0795C10.3371 64.8117 19.1378 67.9431 28.2166 67.9481H28.2927C35.367 67.947 42.3111 66.0433 48.3989 62.436C48.8459 62.1705 49.1692 61.7382 49.2977 61.2341C49.4263 60.73 49.3495 60.1954 49.0843 59.748C48.8191 59.3005 48.3872 58.9769 47.8837 58.8482C47.3801 58.7195 46.8461 58.7964 46.3992 59.0618C40.9204 62.3093 34.6707 64.0237 28.3036 64.0258H28.203C20.0645 64.0205 12.1731 61.2258 5.84168 56.1066L4.77931 55.0444C11.4116 49.2318 19.9038 46.131 28.8456 46.2724C38.1067 46.422 46.7959 50.0559 53.3127 56.5064H53.3195L53.3304 56.5173C60.8104 63.9198 70.763 67.9998 81.3609 67.9998C91.9696 67.9998 101.932 63.9198 109.414 56.5091C109.599 56.3269 109.745 56.1099 109.844 55.8707C109.944 55.6315 109.995 55.375 109.995 55.1158C109.995 54.8566 109.944 54.6 109.844 54.3609C109.745 54.1217 109.599 53.9047 109.414 53.7225L109.419 53.7198Z" fill="#355D48"/>
</g>
<defs>
<clipPath id="clip0_327_735">
<rect width="110" height="68" fill="white"/>
</clipPath>
</defs>
</svg>
