<svg width="92" height="92" viewBox="0 0 92 92" fill="none" xmlns="http://www.w3.org/2000/svg">
<circle cx="46" cy="46" r="46" fill="#EBF3F7"/>
<path d="M56.2648 39.8125C56.0588 42.6721 53.9375 44.875 51.6242 44.875C49.3109 44.875 47.1861 42.6728 46.9836 39.8125C46.7726 36.8376 48.8377 34.75 51.6242 34.75C54.4107 34.75 56.4758 36.8917 56.2648 39.8125Z" stroke="#232323" stroke-width="2.25" stroke-linecap="round" stroke-linejoin="round"/>
<path d="M51.6247 49.375C47.0425 49.375 42.636 51.651 41.5321 56.0835C41.3858 56.6699 41.7535 57.25 42.3561 57.25H60.894C61.4966 57.25 61.8622 56.6699 61.7181 56.0835C60.6142 51.58 56.2077 49.375 51.6247 49.375Z" stroke="#232323" stroke-width="2.25" stroke-miterlimit="10"/>
<path d="M42.0624 41.0739C41.8979 43.3577 40.1837 45.1562 38.3359 45.1562C36.4881 45.1562 34.771 43.3584 34.6093 41.0739C34.4413 38.698 36.1098 37 38.3359 37C40.562 37 42.2305 38.7416 42.0624 41.0739Z" stroke="#232323" stroke-width="2.25" stroke-linecap="round" stroke-linejoin="round"/>
<path d="M42.4851 49.5157C41.2159 48.9342 39.8181 48.7106 38.3366 48.7106C34.6804 48.7106 31.1577 50.5282 30.2753 54.0684C30.1593 54.5367 30.4532 55 30.9341 55H38.8288" stroke="#232323" stroke-width="2.25" stroke-miterlimit="10" stroke-linecap="round"/>
</svg>
