<svg width="92" height="92" viewBox="0 0 92 92" fill="none" xmlns="http://www.w3.org/2000/svg">
<circle cx="46" cy="46" r="46" fill="#EBF3F7"/>
<path d="M44.6486 63.0694C42.8224 62.7107 40.9974 62.1094 39.1736 61.2657C37.3499 60.4219 35.7186 59.2475 34.2799 57.7425C32.8411 56.2375 31.6705 54.3832 30.768 52.1794C29.8655 49.9757 29.4155 47.3375 29.418 44.265V43.9613C29.418 43.62 29.5224 43.345 29.7311 43.1363C29.9411 42.9263 30.2161 42.8213 30.5561 42.8213H30.7886C32.0936 42.8213 33.6436 43.1332 35.4386 43.7569C37.2336 44.3807 38.7586 45.1463 40.0136 46.0538C40.1636 43.9575 40.6342 41.7688 41.4255 39.4875C42.2167 37.2063 43.2349 35.165 44.4799 33.3638C44.7586 32.9763 45.0986 32.7825 45.4999 32.7825C45.9011 32.7825 46.2411 32.9763 46.5199 33.3638C47.7649 35.1638 48.7836 37.2169 49.5761 39.5232C50.3661 41.8282 50.8367 44.0288 50.988 46.125C52.168 45.2875 53.6317 44.5457 55.3792 43.8994C57.1267 43.2532 58.7136 42.8938 60.1399 42.8213L60.4717 42.7857C60.7967 42.7619 61.0749 42.8663 61.3061 43.0988C61.5374 43.3313 61.6411 43.6094 61.6174 43.9332L61.5799 44.3363C61.4124 46.7838 61.0049 48.9957 60.3574 50.9719C59.7099 52.9482 58.8099 54.7 57.6574 56.2275C56.5049 57.755 55.0892 59.0675 53.4105 60.165C51.7317 61.2625 49.7874 62.17 47.5774 62.8875C47.1711 63.0225 46.683 63.1019 46.113 63.1257C45.543 63.1494 45.0555 63.1307 44.6505 63.0694M46.128 61.4063C45.7842 56.25 44.2292 52.3363 41.463 49.665C38.6967 46.9938 35.3142 45.345 31.3155 44.7188C31.253 44.7188 31.253 44.7188 31.3155 44.7188C31.6592 50 33.2605 53.9688 36.1192 56.625C38.978 59.2813 42.3142 60.875 46.128 61.4063C46.1905 61.4375 46.1905 61.4457 46.128 61.4307C46.0655 61.4157 46.0655 61.4075 46.128 61.4063ZM41.8436 47.3438C42.5411 47.9225 43.2155 48.6394 43.8667 49.4944C44.518 50.3494 45.0624 51.1682 45.4999 51.9507C45.9211 51.1682 46.4611 50.3494 47.1199 49.4944C47.7786 48.6394 48.4574 47.9225 49.1561 47.3438C49.1411 45.4425 48.8136 43.4388 48.1736 41.3325C47.5336 39.2263 46.6424 37.2157 45.4999 35.3007C44.3586 37.2169 43.4674 39.2219 42.8261 41.3157C42.1849 43.4094 41.8574 45.4188 41.8436 47.3438ZM46.4805 54.1594C46.8555 55.1594 47.1636 56.1688 47.4049 57.1875C47.6461 58.2063 47.8455 59.4032 48.003 60.7782C49.4405 60.2832 50.8324 59.6188 52.1786 58.785C53.5249 57.9513 54.723 56.8913 55.773 55.605C56.823 54.3188 57.703 52.7857 58.413 51.0057C59.123 49.2257 59.5467 47.13 59.6842 44.7188C59.6842 44.6563 59.6842 44.6563 59.6842 44.7188C56.6505 45.1563 53.9524 46.2232 51.5899 47.9194C49.2274 49.6144 47.5242 51.6944 46.4805 54.1594Z" fill="#232323"/>
</svg>
