<svg xmlns="http://www.w3.org/2000/svg" width="121" height="42"><path fill="#e10600" d="M53 25.8A16.236 16.236 0 0 1 69.117 9.61a15.673 15.673 0 0 1 15.059 11.568l-2.647 1.246c-2.353 1.128-3.647-.593-4.412-1.66-1.294-1.84-3.412-4.805-7.941-4.805a9.526 9.526 0 0 0-9.588 9.841 9.492 9.492 0 0 0 9.589 9.848c4.529 0 6.646-2.907 7.941-4.805.765-1.068 2.059-2.788 4.412-1.661l2.647 1.247A15.673 15.673 0 0 1 69.117 42 16.2 16.2 0 0 1 53 25.8Zm64.941 15.72a3.38 3.38 0 0 1-3.47-3.322v-12.63a9.357 9.357 0 1 0-18.706 0A9.162 9.162 0 0 0 105.117 35h2.354a3.356 3.356 0 0 1 3.412 3.441v3.084h-5.765A15.958 15.958 0 1 1 121 25.568v15.957Zm-74.765 0a3.429 3.429 0 0 1-3.47-3.381V0h3.176a3.429 3.429 0 0 1 3.47 3.381v38.144Zm-14.412 0a3.38 3.38 0 0 1-3.47-3.322v-12.63a9.357 9.357 0 1 0-18.707 0A9.162 9.162 0 0 0 15.941 35h2.353a3.356 3.356 0 0 1 3.412 3.441v3.084h-5.765a15.958 15.958 0 1 1 15.882-15.957v15.957Z"/></svg>